<svg width="24" height="24" viewBox="0 0 24 24" fill="none" xmlns="http://www.w3.org/2000/svg">
<path d="M19 14C20.49 12.54 22 10.79 22 8.5C22 7.04131 21.4205 5.64236 20.3891 4.61091C19.3576 3.57946 17.9587 3 16.5 3C14.74 3 13.5 3.5 12 5C10.5 3.5 9.26 3 7.5 3C6.04131 3 4.64236 3.57946 3.61091 4.61091C2.57946 5.64236 2 7.04131 2 8.5C2 10.8 3.5 12.55 5 14L12 21L19 14Z" stroke="#EC2626" stroke-width="2" stroke-linecap="round" stroke-linejoin="round"/>
<path d="M16.75 12.9444C17.8675 11.89 19 10.6261 19 8.97222C19 7.91872 18.5654 6.90837 17.7918 6.16344C17.0182 5.4185 15.969 5 14.875 5C13.555 5 12.625 5.36111 11.5 6.44444C10.375 5.36111 9.445 5 8.125 5C7.03098 5 5.98177 5.4185 5.20818 6.16344C4.4346 6.90837 4 7.91872 4 8.97222C4 10.6333 5.125 11.8972 6.25 12.9444L11.5 18L16.75 12.9444Z" stroke="#EC2626" stroke-width="2" stroke-linecap="round" stroke-linejoin="round"/>
<path d="M15.2 12.1111C16.094 11.3 17 10.3278 17 9.05556C17 8.24517 16.6523 7.46798 16.0335 6.89495C15.4146 6.32192 14.5752 6 13.7 6C12.644 6 11.9 6.27778 11 7.11111C10.1 6.27778 9.356 6 8.3 6C7.42479 6 6.58542 6.32192 5.96655 6.89495C5.34768 7.46798 5 8.24517 5 9.05556C5 10.3333 5.9 11.3056 6.8 12.1111L11 16L15.2 12.1111Z" stroke="#EC2626" stroke-width="2" stroke-linecap="round" stroke-linejoin="round"/>
<path d="M13.65 11.2778C14.3205 10.71 15 10.0294 15 9.13889C15 8.57162 14.7392 8.02759 14.2751 7.62647C13.8109 7.22535 13.1814 7 12.525 7C11.733 7 11.175 7.19444 10.5 7.77778C9.825 7.19444 9.267 7 8.475 7C7.81859 7 7.18906 7.22535 6.72491 7.62647C6.26076 8.02759 6 8.57162 6 9.13889C6 10.0333 6.675 10.7139 7.35 11.2778L10.5 14L13.65 11.2778Z" stroke="#EC2626" stroke-width="2" stroke-linecap="round" stroke-linejoin="round"/>
<path d="M12.1 10.4444C12.547 10.12 13 9.73111 13 9.22222C13 8.89807 12.8262 8.58719 12.5167 8.35798C12.2073 8.12877 11.7876 8 11.35 8C10.822 8 10.45 8.11111 10 8.44444C9.55 8.11111 9.178 8 8.65 8C8.21239 8 7.79271 8.12877 7.48327 8.35798C7.17384 8.58719 7 8.89807 7 9.22222C7 9.73333 7.45 10.1222 7.9 10.4444L10 12L12.1 10.4444Z" stroke="#EC2626" stroke-width="2" stroke-linecap="round" stroke-linejoin="round"/>
<path d="M11.4 10.2222C11.698 10.06 12 9.86556 12 9.61111C12 9.44903 11.8841 9.2936 11.6778 9.17899C11.4715 9.06438 11.1917 9 10.9 9C10.548 9 10.3 9.05556 10 9.22222C9.7 9.05556 9.452 9 9.1 9C8.80826 9 8.52847 9.06438 8.32218 9.17899C8.11589 9.2936 8 9.44903 8 9.61111C8 9.86667 8.3 10.0611 8.6 10.2222L10 11L11.4 10.2222Z" stroke="#EC2626" stroke-width="2" stroke-linecap="round" stroke-linejoin="round"/>
<path d="M17.45 13.1667C18.7165 11.95 20 10.4917 20 8.58333C20 7.36776 19.5075 6.20197 18.6307 5.34243C17.754 4.48289 16.5649 4 15.325 4C13.829 4 12.775 4.41667 11.5 5.66667C10.225 4.41667 9.171 4 7.675 4C6.43511 4 5.24601 4.48289 4.36928 5.34243C3.49254 6.20197 3 7.36776 3 8.58333C3 10.5 4.275 11.9583 5.55 13.1667L11.5 19L17.45 13.1667Z" stroke="#EC2626" stroke-width="2" stroke-linecap="round" stroke-linejoin="round"/>
</svg>
