<svg width="10" height="10" viewBox="0 0 10 10" fill="none" xmlns="http://www.w3.org/2000/svg">
<path d="M9.44448 4.661C9.54772 4.58409 9.6243 4.4768 9.66348 4.35417C9.70267 4.23154 9.70249 4.09972 9.66298 3.97719C9.62346 3.85467 9.54659 3.74759 9.44315 3.67095C9.3397 3.59432 9.21487 3.55199 9.08615 3.54989L6.58615 3.45544C6.57386 3.45459 6.56207 3.45021 6.55222 3.44281C6.54236 3.43542 6.53485 3.42534 6.53059 3.41377L5.6667 1.08044C5.6233 0.961729 5.54446 0.859223 5.44087 0.7868C5.33728 0.714378 5.21393 0.675537 5.08754 0.675537C4.96114 0.675537 4.83779 0.714378 4.7342 0.7868C4.63061 0.859223 4.55177 0.961729 4.50837 1.08044L3.64726 3.42211C3.643 3.43367 3.63549 3.44376 3.62564 3.45115C3.61578 3.45854 3.604 3.46293 3.5917 3.46377L1.0917 3.55822C0.962983 3.56032 0.838148 3.60266 0.734702 3.67929C0.631256 3.75592 0.554387 3.863 0.514873 3.98553C0.475359 4.10805 0.475182 4.23987 0.514366 4.3625C0.55355 4.48513 0.630131 4.59242 0.733371 4.66933L2.69448 6.211C2.7043 6.21872 2.71163 6.22915 2.71558 6.241C2.71953 6.25285 2.71992 6.2656 2.7167 6.27766L2.0417 8.66933C2.00673 8.79112 2.01011 8.92073 2.05141 9.04052C2.0927 9.16032 2.1699 9.26449 2.2725 9.33885C2.37509 9.41322 2.4981 9.45418 2.6248 9.45615C2.7515 9.45812 2.87573 9.42102 2.98059 9.34989L5.05281 7.961C5.06302 7.95395 5.07513 7.95017 5.08754 7.95017C5.09994 7.95017 5.11205 7.95395 5.12226 7.961L7.19448 9.34989C7.29793 9.42345 7.42171 9.46298 7.54865 9.46298C7.67558 9.46298 7.79937 9.42345 7.90281 9.34989C8.00544 9.27622 8.08271 9.17256 8.12399 9.05318C8.16528 8.93379 8.16856 8.80454 8.13337 8.68322L7.45281 6.28322C7.44921 6.27117 7.44941 6.2583 7.45338 6.24637C7.45736 6.23444 7.46492 6.22403 7.47504 6.21655L9.44448 4.661Z" fill="#F7CB32"/>
</svg>
